<svg height="459pt" viewBox="-5 0 459 459.36485" width="459pt" xmlns="http://www.w3.org/2000/svg"><path d="m65.230469 192.695312-55.046875-39.3125 214.679687-143.378906 214.679688 143.378906-55.011719 39.28125-159.667969 114zm0 0" fill="#00acea"/><path d="m385.121094 263.59375-160.257813 114.421875-159.78125-114.082031-54.898437-39.199219 55.046875-32.039063 159.632812 113.96875 159.667969-114 .0625.089844 54.949219 31.980469zm0 0" fill="#00efd1"/><path d="m439.542969 296.085938-214.679688 153.277343-214.679687-153.277343 54.898437-32.152344 159.78125 114.082031 160.257813-114.421875zm0 0" fill="#00acea"/><path d="m4.371094 161.523438 42.453125 30.3125-41.671875 24.253906c-2.933594 1.710937-4.800782 4.789062-4.957032 8.179687-.1601558 3.390625 1.414063 6.628907 4.175782 8.601563l42.339844 30.230468-41.582032 24.355469c-2.925781 1.710938-4.785156 4.789063-4.9375 8.175781-.1523435 3.386719 1.421875 6.621094 4.179688 8.589844l214.679687 153.28125c3.476563 2.480469 8.144531 2.480469 11.621094 0l214.679687-153.28125c2.746094-1.960937 4.320313-5.175781 4.183594-8.546875-.140625-3.375-1.96875-6.449219-4.867187-8.179687l-41.289063-24.648438 41.972656-29.976562c2.765626-1.972656 4.335938-5.210938 4.179688-8.601563s-2.023438-6.472656-4.960938-8.179687l-41.675781-24.253906 42.457031-30.3125c2.675782-1.910157 4.238282-5.011719 4.1875-8.296876-.050781-3.285156-1.710937-6.332031-4.445312-8.160156l-214.675781-143.382812c-3.363281-2.246094-7.746094-2.246094-11.109375 0l-214.679688 143.382812c-2.730468 1.828125-4.394531 4.875-4.445312 8.160156-.050782 3.285157 1.515625 6.386719 4.1875 8.296876zm220.492187 275.554687-196.308593-140.164063 35.992187-21.078124 154.5 110.316406c3.476563 2.484375 8.144531 2.484375 11.621094 0l154.9375-110.621094 35.675781 21.300781zm196.269531-211.488281-196.269531 140.136718-196.273437-140.136718 36.089844-21 154.371093 110.214844c3.476563 2.480468 8.144531 2.480468 11.621094 0l154.371094-110.21875zm-196.269531-203.5625 197.085938 131.632812-197.085938 140.71875-153.820312-109.824218-43.269531-30.898438zm0 0" fill="#083863"/></svg>