<svg height="459pt" viewBox="-5 0 459 459.36385" width="459pt" xmlns="http://www.w3.org/2000/svg" xmlns:xlink="http://www.w3.org/1999/xlink"><linearGradient id="a" gradientUnits="userSpaceOnUse" x1="224.862331" x2="224.862331" y1="-16.605833" y2="479.751167"><stop offset="0" stop-color="#00efd1"/><stop offset="1" stop-color="#00acea"/></linearGradient><path d="m449.542969 153.230469c-.054688-3.285157-1.714844-6.335938-4.449219-8.160157l-214.675781-143.386718c-3.363281-2.246094-7.746094-2.246094-11.109375 0l-214.679688 143.386718c-2.730468 1.824219-4.394531 4.875-4.445312 8.160157-.050782 3.28125 1.515625 6.382812 4.1875 8.292969l42.457031 30.3125-41.675781 24.257812c-2.933594 1.707031-4.800782 4.785156-4.957032 8.175781-.1601558 3.394531 1.414063 6.632813 4.175782 8.605469l42.34375 30.230469-41.585938 24.351562c-2.925781 1.714844-4.785156 4.792969-4.9375 8.179688-.1523435 3.386719 1.421875 6.621093 4.179688 8.589843l214.679687 153.277344c3.476563 2.480469 8.144531 2.480469 11.621094 0l214.679687-153.277344c2.746094-1.960937 4.320313-5.175781 4.183594-8.546874-.136718-3.371094-1.96875-6.449219-4.867187-8.179688l-41.289063-24.65625 41.972656-29.96875c2.761719-1.972656 4.335938-5.210938 4.179688-8.605469-.15625-3.390625-2.023438-6.46875-4.957031-8.175781l-41.675781-24.257812 42.453124-30.3125c2.675782-1.910157 4.242188-5.007813 4.191407-8.292969zm-28.253907 143.597656-196.425781 140.25-196.308593-140.160156 35.992187-21.078125 154.5 110.3125c3.476563 2.480468 8.148437 2.480468 11.625 0l154.941406-110.625zm-.15625-71.242187-196.269531 140.140624-196.273437-140.136718 36.089844-21.003906 154.371093 110.214843c3.476563 2.484375 8.144531 2.484375 11.621094 0l154.371094-110.214843zm-196.269531 68.789062-197.085937-140.714844 197.085937-131.628906 197.085938 131.628906zm0 0" fill="url(#a)"/></svg>