<svg height="496pt" viewBox="-19 0 496 496.00609" width="496pt" xmlns="http://www.w3.org/2000/svg"><path d="m229.042969 488.003906-221.015625-104 221.015625-96 221.015625 96zm0 0" fill="#3e3d42"/><path d="m229.042969 352.003906-221.015625-104 221.015625-96 221.015625 96zm0 0" fill="#acabb1"/><path d="m229.042969 208.003906-221.015625-104 221.015625-96 221.015625 96zm0 0" fill="#e0e0e2"/><g fill="#231f20"><path d="m291.691406 160.003906c1.175782.003906 2.335938-.257812 3.398438-.761718l15.777344-7.421876c3.996093-1.882812 5.714843-6.648437 3.832031-10.648437-1.882813-4-6.652344-5.714844-10.648438-3.832031l-15.769531 7.425781c-3.390625 1.59375-5.222656 5.328125-4.402344 8.984375.816406 3.65625 4.0625 6.257812 7.8125 6.253906zm0 0"/><path d="m341.042969 136.003906c1.144531 0 2.277343-.246094 3.320312-.71875l50.789063-23.121094c4.023437-1.832031 5.800781-6.578124 3.96875-10.601562-1.832032-4.019531-6.574219-5.796875-10.597656-3.964844l-50.800782 23.125c-3.425781 1.5625-5.300781 5.300782-4.5 8.980469.796875 3.679687 4.054688 6.300781 7.820313 6.300781zm0 0"/><path d="m453.265625 376.667969-134.078125-58.265625 134.300781-63.199219c2.84375-1.339844 4.640625-4.21875 4.59375-7.359375-.050781-3.140625-1.933593-5.964844-4.816406-7.214844l-142.910156-62.082031 143.109375-67.34375c2.84375-1.335937 4.640625-4.214844 4.59375-7.355469-.046875-3.144531-1.925782-5.96875-4.808594-7.21875l-221.007812-95.960937c-2.039063-.890625-4.359376-.890625-6.398438 0l-221.027344 96c-2.878906 1.253906-4.7617185 4.078125-4.8085935 7.21875s1.7499995 6.019531 4.5937495 7.355469l143.113282 67.34375-142.898438 62.082031c-2.882812 1.25-4.7656248 4.074219-4.81249975 7.214843-.04687505 3.144532 1.74609375 6.023438 4.58984375 7.359376l134.304688 63.203124-134.082032 58.222657c-2.882812 1.25-4.7656248 4.074219-4.81249975 7.214843-.04687505 3.144532 1.74609375 6.023438 4.58984375 7.359376l221.039062 104c2.160157 1.019531 4.660157 1.019531 6.816407 0l221.039062-104c2.84375-1.335938 4.640625-4.214844 4.59375-7.359376-.050781-3.140624-1.933593-5.964843-4.816406-7.214843zm-224.222656-359.945313 201.597656 87.578125-201.597656 94.902344-201.601563-94.902344zm-62.039063 170.929688 58.628906 27.589844c2.160157 1.019531 4.660157 1.019531 6.816407 0l58.632812-27.589844 139.558594 60.640625-201.597656 94.910156-201.601563-94.910156zm62.039063 291.550781-201.601563-94.902344 130.777344-56.800781 67.449219 31.734375c2.15625 1.019531 4.65625 1.019531 6.8125 0l67.449219-31.734375 130.777343 56.800781zm0 0"/></g></svg>